<svg xmlns="http://www.w3.org/2000/svg" viewBox="0 0 100 100" x="0px" y="0px"><title>Noun_Project_30Icon_5px_grid</title><g data-name="Capa 2"><path d="M71.85,16H27.22A11.63,11.63,0,0,0,15.6,27.61V72.25A11.63,11.63,0,0,0,27.22,83.87H71.85A11.64,11.64,0,0,0,83.48,72.25V27.61A11.64,11.64,0,0,0,71.85,16Zm9.64,56.26a9.64,9.64,0,0,1-9.64,9.63H27.22a9.65,9.65,0,0,1-9.64-9.63V27.61A9.65,9.65,0,0,1,27.22,18H71.85a9.64,9.64,0,0,1,9.64,9.63Z"></path><path d="M49.54,30.87A19.06,19.06,0,1,0,68.6,49.93,19.09,19.09,0,0,0,49.54,30.87Zm0,36.14A17.08,17.08,0,1,1,66.61,49.93,17.1,17.1,0,0,1,49.54,67Z"></path><path d="M69.73,24.49A5.25,5.25,0,1,0,75,29.74,5.26,5.26,0,0,0,69.73,24.49Zm0,8.51A3.26,3.26,0,1,1,73,29.74,3.26,3.26,0,0,1,69.73,33Z"></path><path d="M41.22,41.62a11.71,11.71,0,0,1,15.12-1.26,1,1,0,1,0,1.15-1.62A13.73,13.73,0,0,0,38.34,57.89a1,1,0,0,0,.81.42,1,1,0,0,0,.58-.19A1,1,0,0,0,40,56.74a11.71,11.71,0,0,1,1.26-15.12Z"></path><path d="M59.34,41.74a1,1,0,0,0-.23,1.39A11.74,11.74,0,0,1,42.73,59.51a1,1,0,0,0-1.38.23,1,1,0,0,0,.23,1.39,13.77,13.77,0,0,0,8,2.54c.35,0,.71,0,1.06,0A13.73,13.73,0,0,0,60.73,42a1,1,0,0,0-1.39-.24Z"></path></g></svg>