<svg xmlns="http://www.w3.org/2000/svg" viewBox="0 0 64 64" x="0px" y="0px"><g data-name="Layer 71"><path d="M52.41,10.71A29.49,29.49,0,1,0,61.5,32,29.39,29.39,0,0,0,52.41,10.71Zm6,19.79H45.18a62.27,62.27,0,0,0-1.36-11.9,29.37,29.37,0,0,0,7.5-4.73A26.11,26.11,0,0,1,58.45,30.5Zm-36.63,0A59.4,59.4,0,0,1,23,19.68a29.66,29.66,0,0,0,9,1.39,29.66,29.66,0,0,0,9-1.39A59.4,59.4,0,0,1,42.18,30.5Zm20.36,3A59.4,59.4,0,0,1,41,44.32a29.64,29.64,0,0,0-17.94,0A59.4,59.4,0,0,1,21.82,33.5Zm6.94-21.71a26.24,26.24,0,0,1-6,3.86,36.94,36.94,0,0,0-1.6-4.46,22.61,22.61,0,0,0-2.81-4.84A26.47,26.47,0,0,1,49.12,11.79ZM32,5.5c2.36,0,4.82,2.51,6.73,6.89a33.13,33.13,0,0,1,1.53,4.36A26.35,26.35,0,0,1,32,18.07a26.35,26.35,0,0,1-8.26-1.32,33.13,33.13,0,0,1,1.53-4.36C27.18,8,29.64,5.5,32,5.5Zm-6.67.85a22.61,22.61,0,0,0-2.81,4.84,38.73,38.73,0,0,0-1.6,4.46,26.24,26.24,0,0,1-6-3.86A26.47,26.47,0,0,1,25.33,6.35ZM12.68,13.87a29.37,29.37,0,0,0,7.5,4.73,62.27,62.27,0,0,0-1.36,11.9H5.55A26.13,26.13,0,0,1,12.68,13.87ZM5.55,33.5H18.82a62.27,62.27,0,0,0,1.36,11.9,29.4,29.4,0,0,0-7.5,4.74A26.16,26.16,0,0,1,5.55,33.5Zm9.33,18.72a26.62,26.62,0,0,1,6-3.87,37.11,37.11,0,0,0,1.6,4.47,22.35,22.35,0,0,0,2.81,4.83A26.45,26.45,0,0,1,14.88,52.22ZM32,58.5c-2.36,0-4.82-2.51-6.73-6.88a33.28,33.28,0,0,1-1.53-4.37,26.5,26.5,0,0,1,16.52,0,33.81,33.81,0,0,1-1.53,4.37C36.82,56,34.36,58.5,32,58.5Zm6.67-.85a22.35,22.35,0,0,0,2.81-4.83,37.11,37.11,0,0,0,1.6-4.47,26.62,26.62,0,0,1,6,3.87A26.45,26.45,0,0,1,38.67,57.65Zm12.65-7.51a29.4,29.4,0,0,0-7.5-4.74,62.27,62.27,0,0,0,1.36-11.9H58.45A26.16,26.16,0,0,1,51.32,50.14Z"></path></g></svg>